<mxfile host="Electron" agent="Mozilla/5.0 (Windows NT 10.0; Win64; x64) AppleWebKit/537.36 (KHTML, like Gecko) draw.io/27.0.5 Chrome/134.0.6998.205 Electron/35.3.0 Safari/537.36" version="27.0.5">
  <diagram name="Page-1" id="C02kmHeSeNR3JkAANCBL">
    <mxGraphModel dx="1737" dy="1043" grid="1" gridSize="10" guides="1" tooltips="1" connect="1" arrows="1" fold="1" page="1" pageScale="1" pageWidth="1100" pageHeight="850" math="0" shadow="0">
      <root>
        <mxCell id="0" />
        <mxCell id="1" parent="0" />
        <mxCell id="a061cjBR9fbjJpgw5osA-39" value="" style="rounded=0;whiteSpace=wrap;html=1;" vertex="1" parent="1">
          <mxGeometry x="440" y="170" width="580" height="1110" as="geometry" />
        </mxCell>
        <mxCell id="a061cjBR9fbjJpgw5osA-34" style="rounded=0;orthogonalLoop=1;jettySize=auto;html=1;exitX=1;exitY=0.3333333333333333;exitDx=0;exitDy=0;exitPerimeter=0;entryX=0;entryY=0.5;entryDx=0;entryDy=0;" edge="1" parent="1" source="a061cjBR9fbjJpgw5osA-1" target="a061cjBR9fbjJpgw5osA-15">
          <mxGeometry relative="1" as="geometry" />
        </mxCell>
        <mxCell id="a061cjBR9fbjJpgw5osA-35" style="rounded=0;orthogonalLoop=1;jettySize=auto;html=1;exitX=1;exitY=0.3333333333333333;exitDx=0;exitDy=0;exitPerimeter=0;entryX=0;entryY=0.5;entryDx=0;entryDy=0;" edge="1" parent="1" source="a061cjBR9fbjJpgw5osA-1" target="a061cjBR9fbjJpgw5osA-5">
          <mxGeometry relative="1" as="geometry" />
        </mxCell>
        <mxCell id="a061cjBR9fbjJpgw5osA-36" style="rounded=0;orthogonalLoop=1;jettySize=auto;html=1;exitX=1;exitY=0.3333333333333333;exitDx=0;exitDy=0;exitPerimeter=0;entryX=0;entryY=0.5;entryDx=0;entryDy=0;" edge="1" parent="1" source="a061cjBR9fbjJpgw5osA-1" target="a061cjBR9fbjJpgw5osA-27">
          <mxGeometry relative="1" as="geometry" />
        </mxCell>
        <mxCell id="a061cjBR9fbjJpgw5osA-37" style="rounded=0;orthogonalLoop=1;jettySize=auto;html=1;exitX=1;exitY=0.3333333333333333;exitDx=0;exitDy=0;exitPerimeter=0;entryX=0;entryY=0.5;entryDx=0;entryDy=0;" edge="1" parent="1" source="a061cjBR9fbjJpgw5osA-1" target="a061cjBR9fbjJpgw5osA-32">
          <mxGeometry relative="1" as="geometry" />
        </mxCell>
        <mxCell id="a061cjBR9fbjJpgw5osA-1" value="&lt;font style=&quot;font-size: 24px;&quot; face=&quot;Times New Roman&quot;&gt;Employee&lt;/font&gt;" style="shape=umlActor;verticalLabelPosition=bottom;verticalAlign=top;html=1;" vertex="1" parent="1">
          <mxGeometry x="120" y="580" width="70" height="120" as="geometry" />
        </mxCell>
        <mxCell id="a061cjBR9fbjJpgw5osA-5" value="&lt;font style=&quot;font-size: 18px;&quot;&gt;Open Client Window&lt;/font&gt;" style="ellipse;whiteSpace=wrap;html=1;" vertex="1" parent="1">
          <mxGeometry x="560" y="370" width="140" height="70" as="geometry" />
        </mxCell>
        <mxCell id="a061cjBR9fbjJpgw5osA-7" value="&lt;font style=&quot;font-size: 18px;&quot;&gt;Add client&lt;/font&gt;" style="ellipse;whiteSpace=wrap;html=1;" vertex="1" parent="1">
          <mxGeometry x="720" y="190" width="140" height="70" as="geometry" />
        </mxCell>
        <mxCell id="a061cjBR9fbjJpgw5osA-8" value="Extends" style="endArrow=block;endSize=16;endFill=0;html=1;rounded=0;exitX=0;exitY=0.5;exitDx=0;exitDy=0;entryX=0.5;entryY=0;entryDx=0;entryDy=0;" edge="1" parent="1" source="a061cjBR9fbjJpgw5osA-7" target="a061cjBR9fbjJpgw5osA-5">
          <mxGeometry width="160" relative="1" as="geometry">
            <mxPoint x="640" y="540" as="sourcePoint" />
            <mxPoint x="800" y="540" as="targetPoint" />
          </mxGeometry>
        </mxCell>
        <mxCell id="a061cjBR9fbjJpgw5osA-9" value="&lt;font style=&quot;font-size: 18px;&quot;&gt;Delete client&lt;/font&gt;" style="ellipse;whiteSpace=wrap;html=1;" vertex="1" parent="1">
          <mxGeometry x="790" y="280" width="140" height="70" as="geometry" />
        </mxCell>
        <mxCell id="a061cjBR9fbjJpgw5osA-10" value="Extends" style="endArrow=block;endSize=16;endFill=0;html=1;rounded=0;exitX=0;exitY=0.5;exitDx=0;exitDy=0;" edge="1" parent="1" source="a061cjBR9fbjJpgw5osA-9" target="a061cjBR9fbjJpgw5osA-5">
          <mxGeometry width="160" relative="1" as="geometry">
            <mxPoint x="840" y="310" as="sourcePoint" />
            <mxPoint x="720" y="405" as="targetPoint" />
          </mxGeometry>
        </mxCell>
        <mxCell id="a061cjBR9fbjJpgw5osA-11" value="&lt;font style=&quot;font-size: 18px;&quot;&gt;Edit client&lt;/font&gt;" style="ellipse;whiteSpace=wrap;html=1;" vertex="1" parent="1">
          <mxGeometry x="790" y="390" width="140" height="70" as="geometry" />
        </mxCell>
        <mxCell id="a061cjBR9fbjJpgw5osA-12" value="Extends" style="endArrow=block;endSize=16;endFill=0;html=1;rounded=0;exitX=0;exitY=0.5;exitDx=0;exitDy=0;entryX=1;entryY=0.5;entryDx=0;entryDy=0;" edge="1" parent="1" source="a061cjBR9fbjJpgw5osA-11" target="a061cjBR9fbjJpgw5osA-5">
          <mxGeometry width="160" relative="1" as="geometry">
            <mxPoint x="833" y="350" as="sourcePoint" />
            <mxPoint x="720" y="414" as="targetPoint" />
          </mxGeometry>
        </mxCell>
        <mxCell id="a061cjBR9fbjJpgw5osA-13" value="&lt;font style=&quot;font-size: 18px;&quot;&gt;View all clients&lt;/font&gt;" style="ellipse;whiteSpace=wrap;html=1;" vertex="1" parent="1">
          <mxGeometry x="790" y="490" width="140" height="70" as="geometry" />
        </mxCell>
        <mxCell id="a061cjBR9fbjJpgw5osA-14" value="Extends" style="endArrow=block;endSize=16;endFill=0;html=1;rounded=0;exitX=0;exitY=0.5;exitDx=0;exitDy=0;entryX=1;entryY=1;entryDx=0;entryDy=0;" edge="1" parent="1" source="a061cjBR9fbjJpgw5osA-13" target="a061cjBR9fbjJpgw5osA-5">
          <mxGeometry width="160" relative="1" as="geometry">
            <mxPoint x="770" y="500" as="sourcePoint" />
            <mxPoint x="680" y="480" as="targetPoint" />
          </mxGeometry>
        </mxCell>
        <mxCell id="a061cjBR9fbjJpgw5osA-15" value="&lt;font style=&quot;font-size: 18px;&quot;&gt;Open Product Window&lt;/font&gt;" style="ellipse;whiteSpace=wrap;html=1;" vertex="1" parent="1">
          <mxGeometry x="570" y="735" width="140" height="70" as="geometry" />
        </mxCell>
        <mxCell id="a061cjBR9fbjJpgw5osA-16" value="&lt;font style=&quot;font-size: 18px;&quot;&gt;Add product&lt;/font&gt;" style="ellipse;whiteSpace=wrap;html=1;" vertex="1" parent="1">
          <mxGeometry x="670" y="605" width="140" height="70" as="geometry" />
        </mxCell>
        <mxCell id="a061cjBR9fbjJpgw5osA-18" value="Extends" style="endArrow=block;endSize=16;endFill=0;html=1;rounded=0;exitX=0;exitY=0.5;exitDx=0;exitDy=0;entryX=0.5;entryY=0;entryDx=0;entryDy=0;" edge="1" parent="1" source="a061cjBR9fbjJpgw5osA-16" target="a061cjBR9fbjJpgw5osA-15">
          <mxGeometry width="160" relative="1" as="geometry">
            <mxPoint x="760" y="720" as="sourcePoint" />
            <mxPoint x="650" y="625" as="targetPoint" />
          </mxGeometry>
        </mxCell>
        <mxCell id="a061cjBR9fbjJpgw5osA-19" value="&lt;font style=&quot;font-size: 18px;&quot;&gt;Delete product&lt;/font&gt;" style="ellipse;whiteSpace=wrap;html=1;" vertex="1" parent="1">
          <mxGeometry x="800" y="675" width="140" height="70" as="geometry" />
        </mxCell>
        <mxCell id="a061cjBR9fbjJpgw5osA-20" value="Extends" style="endArrow=block;endSize=16;endFill=0;html=1;rounded=0;exitX=0;exitY=0.5;exitDx=0;exitDy=0;entryX=1;entryY=0;entryDx=0;entryDy=0;" edge="1" parent="1" source="a061cjBR9fbjJpgw5osA-19" target="a061cjBR9fbjJpgw5osA-15">
          <mxGeometry width="160" relative="1" as="geometry">
            <mxPoint x="760" y="845" as="sourcePoint" />
            <mxPoint x="670" y="915" as="targetPoint" />
          </mxGeometry>
        </mxCell>
        <mxCell id="a061cjBR9fbjJpgw5osA-21" value="&lt;font style=&quot;font-size: 18px;&quot;&gt;Edit product&lt;/font&gt;" style="ellipse;whiteSpace=wrap;html=1;" vertex="1" parent="1">
          <mxGeometry x="800" y="775" width="140" height="70" as="geometry" />
        </mxCell>
        <mxCell id="a061cjBR9fbjJpgw5osA-22" value="Extends" style="endArrow=block;endSize=16;endFill=0;html=1;rounded=0;exitX=0;exitY=0.5;exitDx=0;exitDy=0;entryX=1;entryY=0.5;entryDx=0;entryDy=0;" edge="1" parent="1" source="a061cjBR9fbjJpgw5osA-21" target="a061cjBR9fbjJpgw5osA-15">
          <mxGeometry width="160" relative="1" as="geometry">
            <mxPoint x="780" y="845" as="sourcePoint" />
            <mxPoint x="670" y="880" as="targetPoint" />
          </mxGeometry>
        </mxCell>
        <mxCell id="a061cjBR9fbjJpgw5osA-25" value="&lt;font style=&quot;font-size: 18px;&quot;&gt;View all products&lt;/font&gt;" style="ellipse;whiteSpace=wrap;html=1;" vertex="1" parent="1">
          <mxGeometry x="730" y="865" width="150" height="70" as="geometry" />
        </mxCell>
        <mxCell id="a061cjBR9fbjJpgw5osA-26" value="Extends" style="endArrow=block;endSize=16;endFill=0;html=1;rounded=0;exitX=0;exitY=0;exitDx=0;exitDy=0;entryX=1;entryY=1;entryDx=0;entryDy=0;" edge="1" parent="1" source="a061cjBR9fbjJpgw5osA-25" target="a061cjBR9fbjJpgw5osA-15">
          <mxGeometry width="160" relative="1" as="geometry">
            <mxPoint x="720" y="875" as="sourcePoint" />
            <mxPoint x="630" y="835" as="targetPoint" />
          </mxGeometry>
        </mxCell>
        <mxCell id="a061cjBR9fbjJpgw5osA-27" value="&lt;font style=&quot;font-size: 18px;&quot;&gt;Open Order Window&lt;/font&gt;" style="ellipse;whiteSpace=wrap;html=1;" vertex="1" parent="1">
          <mxGeometry x="610" y="1035" width="140" height="70" as="geometry" />
        </mxCell>
        <mxCell id="a061cjBR9fbjJpgw5osA-28" value="&lt;font style=&quot;font-size: 18px;&quot;&gt;Place order&lt;/font&gt;" style="ellipse;whiteSpace=wrap;html=1;" vertex="1" parent="1">
          <mxGeometry x="840" y="975" width="140" height="70" as="geometry" />
        </mxCell>
        <mxCell id="a061cjBR9fbjJpgw5osA-29" value="Extends" style="endArrow=block;endSize=16;endFill=0;html=1;rounded=0;exitX=0;exitY=0.5;exitDx=0;exitDy=0;entryX=1;entryY=0;entryDx=0;entryDy=0;" edge="1" parent="1" source="a061cjBR9fbjJpgw5osA-28" target="a061cjBR9fbjJpgw5osA-27">
          <mxGeometry width="160" relative="1" as="geometry">
            <mxPoint x="792" y="1035" as="sourcePoint" />
            <mxPoint x="730" y="955" as="targetPoint" />
          </mxGeometry>
        </mxCell>
        <mxCell id="a061cjBR9fbjJpgw5osA-30" value="&lt;font style=&quot;font-size: 18px;&quot;&gt;View all orders&lt;/font&gt;" style="ellipse;whiteSpace=wrap;html=1;" vertex="1" parent="1">
          <mxGeometry x="835" y="1075" width="150" height="70" as="geometry" />
        </mxCell>
        <mxCell id="a061cjBR9fbjJpgw5osA-31" value="Extends" style="endArrow=block;endSize=16;endFill=0;html=1;rounded=0;exitX=0;exitY=0.5;exitDx=0;exitDy=0;entryX=1;entryY=0.5;entryDx=0;entryDy=0;" edge="1" parent="1" source="a061cjBR9fbjJpgw5osA-30" target="a061cjBR9fbjJpgw5osA-27">
          <mxGeometry width="160" relative="1" as="geometry">
            <mxPoint x="800" y="1125" as="sourcePoint" />
            <mxPoint x="690" y="1160" as="targetPoint" />
          </mxGeometry>
        </mxCell>
        <mxCell id="a061cjBR9fbjJpgw5osA-32" value="&lt;font style=&quot;font-size: 18px;&quot;&gt;View Bills&lt;/font&gt;" style="ellipse;whiteSpace=wrap;html=1;" vertex="1" parent="1">
          <mxGeometry x="610" y="1185" width="140" height="70" as="geometry" />
        </mxCell>
        <mxCell id="a061cjBR9fbjJpgw5osA-40" value="&lt;font style=&quot;font-size: 36px;&quot; face=&quot;Times New Roman&quot;&gt;Orders Management Application&lt;/font&gt;" style="text;html=1;align=center;verticalAlign=middle;whiteSpace=wrap;rounded=0;" vertex="1" parent="1">
          <mxGeometry x="465" y="120" width="530" height="30" as="geometry" />
        </mxCell>
      </root>
    </mxGraphModel>
  </diagram>
</mxfile>
